<?xml version="1.0" standalone="no"?>
<!DOCTYPE svg PUBLIC "-//W3C//DTD SVG 20010904//EN"
 "http://www.w3.org/TR/2001/REC-SVG-20010904/DTD/svg10.dtd">
<svg version="1.0" xmlns="http://www.w3.org/2000/svg"
 width="500.000000pt" height="500.000000pt" viewBox="0 0 500.000000 500.000000"
 preserveAspectRatio="xMidYMid meet">

<g transform="translate(0.000000,500.000000) scale(0.100000,-0.100000)"
fill="#000000" stroke="none">
<path d="M3835 4651 c-44 -21 -1135 -1106 -1135 -1129 0 -17 20 -55 34 -64 6
-4 24 -8 41 -8 26 0 97 67 570 539 297 296 547 541 556 544 8 2 28 -1 45 -8
16 -7 158 -143 317 -302 236 -238 287 -294 287 -316 0 -21 -19 -48 -80 -110
l-79 -82 -188 188 c-163 162 -192 187 -219 187 -38 0 -64 -27 -64 -66 0 -24
30 -59 187 -216 l188 -188 -77 -77 -77 -77 -89 87 c-97 94 -130 108 -167 67
-35 -39 -23 -66 71 -161 l89 -89 -77 -77 -77 -77 -89 87 c-96 93 -130 108
-165 69 -36 -40 -23 -71 70 -164 l88 -88 -78 -77 -77 -78 -188 188 c-161 160
-193 187 -219 187 -43 0 -68 -32 -64 -81 0 -8 85 -99 188 -203 l186 -187 -74
-75 c-40 -41 -78 -74 -84 -74 -5 0 -48 39 -94 85 -65 65 -91 85 -112 85 -31 0
-69 -40 -69 -73 0 -11 37 -58 90 -111 l90 -92 -65 -64 -65 -65 -330 330 -329
329 69 72 c75 78 88 114 52 147 -38 35 -72 22 -147 -53 l-70 -70 -650 649
c-693 691 -679 679 -809 712 -62 15 -208 7 -266 -17 -117 -46 -218 -147 -264
-264 -24 -58 -32 -204 -17 -266 33 -130 21 -116 712 -809 l649 -650 -696 -695
c-474 -473 -702 -708 -715 -735 -25 -54 -24 -110 5 -170 31 -65 600 -635 658
-660 48 -19 118 -19 166 0 26 11 248 227 734 713 l698 697 58 -58 c63 -63 97
-72 132 -37 49 49 77 17 -795 890 l-815 815 90 90 89 89 70 -67 c76 -74 98
-81 136 -42 39 38 32 60 -42 136 l-67 70 90 89 89 90 1235 -1235 1235 -1235
-90 -90 -90 -90 -1070 1070 c-864 864 -1075 1070 -1096 1070 -32 0 -69 -38
-69 -71 0 -19 236 -260 1070 -1094 l1070 -1070 -90 -90 -90 -90 -328 328
c-288 288 -331 327 -358 327 -38 0 -64 -27 -64 -66 0 -25 50 -79 358 -386
l357 -358 270 -104 c149 -57 334 -129 413 -160 169 -66 209 -70 253 -27 43 44
39 84 -27 253 -31 79 -103 265 -160 413 l-105 270 -507 507 -507 508 697 697
c486 487 702 709 713 735 19 48 19 118 0 166 -25 58 -595 627 -660 658 -60 29
-116 30 -170 5z m-2860 -202 c35 -16 88 -59 178 -148 l129 -126 -229 -228
-228 -228 -126 128 c-152 154 -172 190 -173 308 0 97 24 158 87 223 96 99 236
127 362 71z m493 -462 l82 -82 -228 -228 -227 -227 -84 84 c-76 77 -83 87 -70
102 27 35 430 434 437 434 4 0 44 -37 90 -83z m982 -2212 l-65 -65 -85 84
c-96 95 -122 108 -163 76 -48 -38 -38 -65 63 -166 l90 -90 -80 -79 -79 -79
-187 187 c-103 103 -194 188 -203 188 -50 4 -81 -21 -81 -64 0 -26 27 -58 187
-219 l188 -188 -78 -77 -77 -78 -88 88 c-93 93 -124 106 -164 70 -39 -35 -24
-69 69 -165 l87 -89 -77 -77 -77 -77 -88 88 c-93 93 -124 106 -164 70 -39 -35
-24 -69 69 -165 l87 -89 -77 -77 -77 -77 -188 188 c-156 155 -193 187 -217
187 -38 0 -65 -26 -65 -64 0 -27 25 -56 187 -218 l188 -188 -77 -77 c-120
-120 -92 -134 -434 207 -157 157 -292 297 -300 312 -7 15 -11 35 -8 45 4 10
318 330 698 711 l691 692 330 -330 330 -330 -65 -65z m1807 -745 c35 -91 78
-201 95 -245 17 -44 44 -111 60 -149 15 -38 27 -71 25 -73 -3 -2 -31 8 -63 21
-56 24 -168 68 -466 182 l-128 49 203 203 c111 111 204 196 206 190 2 -7 33
-87 68 -178z"/>
</g>
</svg>
